REM DIRINDEX 1\3,1\4,1\5,1\6,1\2\7,1\2\8,1\2\9,1\10
REM DIRNAME cjc056,folder01,folder02,folder03,folder04,folder05,folder06,folder07,folder08,folder09
TITLE ""
FILE "2-58 Level 6-1044-1055.mp3" MP3
  TRACK 01 AUDIO
    TITLE "0:"
    INDEX 01 00:00:00
  TRACK 02 AUDIO
    TITLE "7:cjc056_3544"
    INDEX 01 00:00:05
  TRACK 03 AUDIO
    TITLE "0:"
    INDEX 01 00:01:17
  TRACK 04 AUDIO
    TITLE "8:cjc056_3545"
    INDEX 01 00:01:30
  TRACK 05 AUDIO
    TITLE "0:"
    INDEX 01 00:03:37
  TRACK 06 AUDIO
    TITLE "9:cjc056_3546"
    INDEX 01 00:03:49
  TRACK 07 AUDIO
    TITLE "0:"
    INDEX 01 00:05:67
  TRACK 08 AUDIO
    TITLE "7:cjc056_3547"
    INDEX 01 00:06:43
  TRACK 09 AUDIO
    TITLE "0:"
    INDEX 01 00:07:54
  TRACK 10 AUDIO
    TITLE "8:cjc056_3548"
    INDEX 01 00:07:64
  TRACK 11 AUDIO
    TITLE "0:"
    INDEX 01 00:10:18
  TRACK 12 AUDIO
    TITLE "9:cjc056_3549"
    INDEX 01 00:10:29
  TRACK 13 AUDIO
    TITLE "0:"
    INDEX 01 00:13:02
  TRACK 14 AUDIO
    TITLE "7:cjc056_3550"
    INDEX 01 00:13:55
  TRACK 15 AUDIO
    TITLE "0:"
    INDEX 01 00:14:58
  TRACK 16 AUDIO
    TITLE "8:cjc056_3551"
    INDEX 01 00:14:74
  TRACK 17 AUDIO
    TITLE "0:"
    INDEX 01 00:17:35
  TRACK 18 AUDIO
    TITLE "9:cjc056_3552"
    INDEX 01 00:17:49
  TRACK 19 AUDIO
    TITLE "0:"
    INDEX 01 00:19:54
  TRACK 20 AUDIO
    TITLE "7:cjc056_3553"
    INDEX 01 00:20:36
  TRACK 21 AUDIO
    TITLE "0:"
    INDEX 01 00:21:35
  TRACK 22 AUDIO
    TITLE "8:cjc056_3554"
    INDEX 01 00:21:49
  TRACK 23 AUDIO
    TITLE "0:"
    INDEX 01 00:23:50
  TRACK 24 AUDIO
    TITLE "9:cjc056_3555"
    INDEX 01 00:23:63
  TRACK 25 AUDIO
    TITLE "0:"
    INDEX 01 00:26:58
  TRACK 26 AUDIO
    TITLE "7:cjc056_3556"
    INDEX 01 00:27:36
  TRACK 27 AUDIO
    TITLE "0:"
    INDEX 01 00:28:37
  TRACK 28 AUDIO
    TITLE "8:cjc056_3557"
    INDEX 01 00:28:51
  TRACK 29 AUDIO
    TITLE "0:"
    INDEX 01 00:30:55
  TRACK 30 AUDIO
    TITLE "9:cjc056_3558"
    INDEX 01 00:30:69
  TRACK 31 AUDIO
    TITLE "0:"
    INDEX 01 00:33:26
  TRACK 32 AUDIO
    TITLE "7:cjc056_3559"
    INDEX 01 00:34:02
  TRACK 33 AUDIO
    TITLE "0:"
    INDEX 01 00:35:00
  TRACK 34 AUDIO
    TITLE "8:cjc056_3560"
    INDEX 01 00:35:15
  TRACK 35 AUDIO
    TITLE "0:"
    INDEX 01 00:37:20
  TRACK 36 AUDIO
    TITLE "9:cjc056_3561"
    INDEX 01 00:37:34
  TRACK 37 AUDIO
    TITLE "0:"
    INDEX 01 00:39:31
  TRACK 38 AUDIO
    TITLE "7:cjc056_3562"
    INDEX 01 00:40:07
  TRACK 39 AUDIO
    TITLE "0:"
    INDEX 01 00:41:12
  TRACK 40 AUDIO
    TITLE "8:cjc056_3563"
    INDEX 01 00:41:26
  TRACK 41 AUDIO
    TITLE "0:"
    INDEX 01 00:43:33
  TRACK 42 AUDIO
    TITLE "9:cjc056_3564"
    INDEX 01 00:43:46
  TRACK 43 AUDIO
    TITLE "0:"
    INDEX 01 00:46:54
  TRACK 44 AUDIO
    TITLE "7:cjc056_3565"
    INDEX 01 00:47:34
  TRACK 45 AUDIO
    TITLE "0:"
    INDEX 01 00:48:48
  TRACK 46 AUDIO
    TITLE "8:cjc056_3566"
    INDEX 01 00:48:53
  TRACK 47 AUDIO
    TITLE "0:"
    INDEX 01 00:50:68
  TRACK 48 AUDIO
    TITLE "9:cjc056_3567"
    INDEX 01 00:51:01
  TRACK 49 AUDIO
    TITLE "0:"
    INDEX 01 00:54:03
  TRACK 50 AUDIO
    TITLE "7:cjc056_3568"
    INDEX 01 00:54:54
  TRACK 51 AUDIO
    TITLE "0:"
    INDEX 01 00:55:61
  TRACK 52 AUDIO
    TITLE "8:cjc056_3569"
    INDEX 01 00:56:00
  TRACK 53 AUDIO
    TITLE "0:"
    INDEX 01 00:58:18
  TRACK 54 AUDIO
    TITLE "9:cjc056_3570"
    INDEX 01 00:58:28
  TRACK 55 AUDIO
    TITLE "0:"
    INDEX 01 01:01:58
  TRACK 56 AUDIO
    TITLE "7:cjc056_3571"
    INDEX 01 01:02:36
  TRACK 57 AUDIO
    TITLE "0:"
    INDEX 01 01:03:33
  TRACK 58 AUDIO
    TITLE "8:cjc056_3572"
    INDEX 01 01:03:49
  TRACK 59 AUDIO
    TITLE "0:"
    INDEX 01 01:05:46
  TRACK 60 AUDIO
    TITLE "9:cjc056_3573"
    INDEX 01 01:05:58
  TRACK 61 AUDIO
    TITLE "0:"
    INDEX 01 01:08:46
  TRACK 62 AUDIO
    TITLE "7:cjc056_3574"
    INDEX 01 01:09:24
  TRACK 63 AUDIO
    TITLE "0:"
    INDEX 01 01:10:39
  TRACK 64 AUDIO
    TITLE "8:cjc056_3575"
    INDEX 01 01:10:53
  TRACK 65 AUDIO
    TITLE "0:"
    INDEX 01 01:12:70
  TRACK 66 AUDIO
    TITLE "9:cjc056_3576"
    INDEX 01 01:13:08
  TRACK 67 AUDIO
    TITLE "0:"
    INDEX 01 01:15:44
  TRACK 68 AUDIO
    TITLE "7:cjc056_3577"
    INDEX 01 01:16:24
  TRACK 69 AUDIO
    TITLE "0:"
    INDEX 01 01:17:32
  TRACK 70 AUDIO
    TITLE "8:cjc056_3578"
    INDEX 01 01:17:49
  TRACK 71 AUDIO
    TITLE "0:"
    INDEX 01 01:19:74
  TRACK 72 AUDIO
    TITLE "9:cjc056_3579"
    INDEX 01 01:20:10
  TRACK 73 AUDIO
    TITLE "0:"
    INDEX 01 01:22:23
